<?xml version="1.0" encoding="UTF-8"?>
<svg width="2560px" height="1600px" viewBox="0 0 2560 1600" xmlns="http://www.w3.org/2000/svg" xmlns:xlink="http://www.w3.org/1999/xlink" version="1.1">
 <!-- Generated by Pixelmator Pro 2.0.1 -->
 <path id="Прямоугольник-с-закругленными-углами-копия" d="M783 533 C760.909 533 743 550.909 743 573 L743 893 C743 915.091 760.909 933 783 933 L1903 933 C1925.091 933 1943 915.091 1943 893 L1943 573 C1943 550.909 1925.091 533 1903 533 Z" fill="#fff4d0" fill-opacity="1" stroke="none"/>
 <path id="Прямоугольник-с-закругленными-углами" d="M783 533 C760.909 533 743 550.909 743 573 L743 893 C743 915.091 760.909 933 783 933 L1903 933 C1925.091 933 1943 915.091 1943 893 L1943 573 C1943 550.909 1925.091 533 1903 533 Z" fill="none" stroke="#ff8e00" stroke-width="40" stroke-opacity="1" stroke-linejoin="round"/>
</svg>
