<?xml version="1.0" encoding="UTF-8"?>
<svg width="1280px" height="640px" viewBox="0 0 1280 640" xmlns="http://www.w3.org/2000/svg" xmlns:xlink="http://www.w3.org/1999/xlink" version="1.1">
 <!-- Generated by Pixelmator Pro 2.0.1 -->
 <path id="Прямоугольник-с-закругленными-углами-копия" d="M80 120 C57.909 120 40 137.909 40 160 L40 480 C40 502.091 57.909 520 80 520 L1200 520 C1222.091 520 1240 502.091 1240 480 L1240 160 C1240 137.909 1222.091 120 1200 120 Z" fill="#fff4d0" fill-opacity="1" stroke="none"/>
 <path id="Прямоугольник-с-закругленными-углами" d="M80 120 C57.909 120 40 137.909 40 160 L40 480 C40 502.091 57.909 520 80 520 L1200 520 C1222.091 520 1240 502.091 1240 480 L1240 160 C1240 137.909 1222.091 120 1200 120 Z" fill="none" stroke="#ff8e00" stroke-width="40" stroke-opacity="1" stroke-linejoin="round"/>
</svg>
